<svg fill="none" height="3000" viewBox="0 0 3000 3000" width="3000" xmlns="http://www.w3.org/2000/svg"><path d="m-.000122 0h3000v3000h-3000z" fill="#fff"/><g fill="#000"><path clip-rule="evenodd" d="m734 2227.55h217.136c144.414 0 267.284-28.89 368.604-86.65 101.33-58.24 178.74-141.81 232.25-250.71 53.5-109.38 80.49-241.01 80.96-394.89.48-150.57-25.33-279.59-77.41-387.07-51.61-107.96-125.95-190.817-223.01-248.582-97.07-57.765-213.78-86.648-350.144-86.648h-248.386v82.386h244.835c121.685 0 224.435 25.569 308.235 76.705 84.28 51.136 148.44 124.529 192.48 220.169 44.03 95.17 66.05 209.52 66.05 343.04.47 135.42-22.26 251.66-68.19 348.72-45.45 97.07-112.68 171.64-201.7 223.72-89.01 51.61-198.39 77.42-328.125 77.42h-213.585z" fill-rule="evenodd"/><path d="m734 2009.55c0 23.47 19.028 42.5 42.5 42.5s42.5-19.03 42.5-42.5zm0-1200.004v1200.004h85v-1200.004z"/><path clip-rule="evenodd" d="m1874.61 804.121c17.36 15.803 18.62 42.683 2.81 60.038l-145.33 159.611-62.84-57.233 145.33-159.605c15.8-17.356 42.68-18.614 60.03-2.811zm-520.94 508.979 62.85 57.24-608.096 667.82c-15.803 17.35-42.683 18.61-60.038 2.81s-18.613-42.68-2.81-60.04l73.878-81.13 7.618 7.01 3.048-3.31-7.636-7.03 1.01-1.11 7.641 7.03 1.016-1.1-7.647-7.04 1.01-1.11 7.653 7.05 1.016-1.11-7.659-7.05 3.029-3.32 7.678 7.06 3.048-3.31-7.696-7.08 1.01-1.11 7.702 7.09 1.016-1.1-7.708-7.1 1.026-1.13 7.713 7.1 3.048-3.31-7.732-7.11 1.01-1.11 7.738 7.12 1.016-1.1-7.744-7.13 1.01-1.11 7.75 7.13 1.016-1.1-7.756-7.14 3.03-3.33 7.774 7.16 1.016-1.1-7.78-7.17 1.01-1.11 7.785 7.17 3.048-3.31-7.804-7.18zm-516.76 589.45-1.016 1.1 8.534 7.86.914-1-4.046-3.72 3.048-3.31 4.046 3.72.948-1.03-7.909-7.28-.331-.3c-.051-.1-.078-.19-.082-.28l-.11-.11-1.05 1.14 3.642 3.36-3.048 3.31-3.017-2.78-.331-.3c-.051-.1-.078-.19-.082-.28zm22.506-12.35 2.54-2.76 3.28 1.46.915-.99-11.594-4.83-.102.11 5.803 11.12.881-.96zm-2.686-5.05 4.253 1.87-2.065 2.25z" fill-rule="evenodd"/></g><path d="m1846 835.546 419 1349.004" stroke="#000" stroke-linecap="round" stroke-width="85"/></svg>